<svg viewBox="0 0 17 24" fill="none" xmlns="http://www.w3.org/2000/svg">
<path d="M15.5808 4.55834H16.4808C16.4808 4.16926 16.2308 3.82424 15.861 3.70308L15.5808 4.55834ZM5.33208 1.2L5.61233 0.344744C5.32775 0.251489 5.01542 0.305899 4.77913 0.489893L5.33208 1.2ZM1.80005 3.95035L1.2471 3.24024C1.02811 3.41077 0.900047 3.6728 0.900049 3.95035L1.80005 3.95035ZM1.80016 19.7068L0.90016 19.7068C0.900162 20.104 1.16049 20.4542 1.5408 20.5686L1.80016 19.7068ZM12.7436 23.0002L12.4842 23.862C12.7568 23.944 13.0521 23.8923 13.2805 23.7225C13.5089 23.5527 13.6436 23.2848 13.6436 23.0002H12.7436ZM12.7436 7.42449H13.6436C13.6436 7.03235 13.3896 6.68534 13.0159 6.56668L12.7436 7.42449ZM14.6808 21.3789C14.6808 21.876 15.0837 22.2789 15.5808 22.2789C16.0778 22.2789 16.4808 21.876 16.4808 21.3789H14.6808ZM15.861 3.70308L5.61233 0.344744L5.05183 2.05525L15.3005 5.41359L15.861 3.70308ZM4.77913 0.489893L1.2471 3.24024L2.353 4.66045L5.88503 1.9101L4.77913 0.489893ZM0.900049 3.95035L0.90016 19.7068L2.70016 19.7068L2.70005 3.95034L0.900049 3.95035ZM1.5408 20.5686L12.4842 23.862L13.0029 22.1384L2.05952 18.845L1.5408 20.5686ZM13.6436 23.0002V7.42449H11.8436V23.0002H13.6436ZM13.0159 6.56668L2.07237 3.09253L1.52773 4.80816L12.4712 8.28231L13.0159 6.56668ZM14.6808 4.55834V21.3789H16.4808V4.55834H14.6808Z" fill="#FF6363"/>
</svg>
